<?xml version="1.0" encoding="UTF-8" standalone="no"?>
<!DOCTYPE svg PUBLIC "-//W3C//DTD SVG 1.1//EN" "http://www.w3.org/Graphics/SVG/1.1/DTD/svg11.dtd">
<svg width="100%" height="100%" viewBox="0 0 32 32" version="1.1" xmlns="http://www.w3.org/2000/svg" xmlns:xlink="http://www.w3.org/1999/xlink" xml:space="preserve" xmlns:serif="http://www.serif.com/" style="fill-rule:evenodd;clip-rule:evenodd;stroke-linejoin:round;stroke-miterlimit:2;">
    <g transform="matrix(1.73137,0,0,1.73137,-21.4756,-11.2248)">
        <circle cx="21.645" cy="15.724" r="9.048"/>
    </g>
    <g transform="matrix(1.97672,0,0,2.01112,-7.12637,-16.7381)">
        <path d="M9.514,21.312L9.514,10.986L11.713,10.986C12.195,10.986 12.605,11.058 12.945,11.204C13.284,11.349 13.562,11.542 13.778,11.784C13.995,12.025 14.15,12.303 14.243,12.618C14.337,12.932 14.383,13.258 14.383,13.596L14.383,13.974C14.383,14.254 14.361,14.491 14.317,14.684C14.273,14.878 14.206,15.047 14.118,15.192C13.95,15.462 13.695,15.695 13.35,15.888C13.705,16.052 13.965,16.294 14.132,16.613C14.3,16.932 14.383,17.367 14.383,17.918L14.383,18.498C14.383,19.407 14.16,20.103 13.712,20.587C13.264,21.07 12.549,21.312 11.565,21.312L9.514,21.312ZM11.019,16.526L11.019,19.833L11.668,19.833C11.973,19.833 12.212,19.789 12.384,19.702C12.556,19.615 12.686,19.494 12.775,19.34C12.864,19.185 12.918,19.001 12.937,18.788C12.957,18.576 12.967,18.344 12.967,18.092C12.967,17.831 12.952,17.604 12.923,17.411C12.893,17.217 12.834,17.053 12.745,16.918C12.647,16.782 12.514,16.683 12.347,16.62C12.18,16.557 11.959,16.526 11.683,16.526L11.019,16.526ZM11.019,12.378L11.019,15.221L11.698,15.221C12.2,15.221 12.536,15.097 12.709,14.851C12.881,14.604 12.967,14.244 12.967,13.77C12.967,13.306 12.871,12.958 12.679,12.726C12.487,12.494 12.141,12.378 11.639,12.378L11.019,12.378Z" style="fill:white;fill-rule:nonzero;"/>
    </g>
</svg>
