<?xml version="1.0" encoding="UTF-8" standalone="no"?><!DOCTYPE svg PUBLIC "-//W3C//DTD SVG 1.1//EN" "http://www.w3.org/Graphics/SVG/1.1/DTD/svg11.dtd"><svg width="100%" height="100%" viewBox="0 0 391 36" version="1.1" xmlns="http://www.w3.org/2000/svg" xmlns:xlink="http://www.w3.org/1999/xlink" xml:space="preserve" xmlns:serif="http://www.serif.com/" style="fill-rule:evenodd;clip-rule:evenodd;stroke-linejoin:round;stroke-miterlimit:2;"><path d="M49.812,35.6l0,-35.6l5.1,0l0,12.55l0.1,0c0.567,-0.833 1.242,-1.475 2.025,-1.925c0.784,-0.45 1.675,-0.675 2.675,-0.675c1.234,0 2.192,0.217 2.875,0.65c0.684,0.433 1.242,0.983 1.675,1.65c0.334,0.533 0.55,1.233 0.65,2.1c0.1,0.867 0.15,2.217 0.15,4.05l0,9.65c0,1.4 -0.066,2.517 -0.2,3.35c-0.133,0.833 -0.35,1.533 -0.65,2.1c-0.866,1.6 -2.35,2.4 -4.45,2.4c-1.266,-0 -2.233,-0.25 -2.9,-0.75c-0.666,-0.5 -1.316,-1.117 -1.95,-1.85l0,2.3l-5.1,0Zm10.15,-17.55c0,-0.8 -0.175,-1.5 -0.525,-2.1c-0.35,-0.6 -1.008,-0.9 -1.975,-0.9c-0.733,0 -1.341,0.258 -1.825,0.775c-0.483,0.517 -0.725,1.175 -0.725,1.975l0,9.85c0,0.933 0.234,1.692 0.7,2.275c0.467,0.583 1.084,0.875 1.85,0.875c0.867,0 1.5,-0.317 1.9,-0.95c0.4,-0.633 0.6,-1.467 0.6,-2.5l0,-9.3Z" style="fill-rule:nonzero;"/><path d="M84.012,24.85l-10.1,0l0,3.45c0,0.8 0.225,1.417 0.675,1.85c0.45,0.433 1.059,0.65 1.825,0.65c0.967,0 1.609,-0.283 1.925,-0.85c0.317,-0.567 0.509,-1.133 0.575,-1.7l5.1,0c0,2.233 -0.683,4.033 -2.05,5.4c-0.666,0.7 -1.466,1.25 -2.4,1.65c-0.933,0.4 -1.983,0.6 -3.15,0.6c-1.6,-0 -2.958,-0.333 -4.075,-1c-1.116,-0.667 -1.975,-1.55 -2.575,-2.65c-0.366,-0.667 -0.616,-1.433 -0.75,-2.3c-0.133,-0.867 -0.2,-1.817 -0.2,-2.85l0,-8.35c0,-1.033 0.067,-1.983 0.2,-2.85c0.134,-0.867 0.384,-1.633 0.75,-2.3c0.6,-1.1 1.459,-1.983 2.575,-2.65c1.117,-0.667 2.475,-1 4.075,-1c1.167,0 2.225,0.2 3.175,0.6c0.95,0.4 1.759,0.95 2.425,1.65c1.334,1.5 2,3.383 2,5.65l0,7Zm-10.1,-4l5,0l0,-2.9c0,-0.967 -0.225,-1.692 -0.675,-2.175c-0.45,-0.483 -1.058,-0.725 -1.825,-0.725c-0.766,0 -1.375,0.242 -1.825,0.725c-0.45,0.483 -0.675,1.208 -0.675,2.175l0,2.9Z" style="fill-rule:nonzero;"/><path d="M97.012,17.35c-0.033,-0.867 -0.308,-1.517 -0.825,-1.95c-0.516,-0.433 -1.108,-0.65 -1.775,-0.65c-0.8,-0 -1.416,0.258 -1.85,0.775c-0.433,0.517 -0.65,1.108 -0.65,1.775c0,0.467 0.117,0.925 0.35,1.375c0.234,0.45 0.834,0.858 1.8,1.225l3,1.2c1.9,0.733 3.209,1.733 3.925,3c0.717,1.267 1.075,2.65 1.075,4.15c0,1.067 -0.191,2.058 -0.575,2.975c-0.383,0.917 -0.908,1.725 -1.575,2.425c-0.666,0.7 -1.466,1.25 -2.4,1.65c-0.933,0.4 -1.95,0.6 -3.05,0.6c-2.066,-0 -3.8,-0.65 -5.2,-1.95c-0.7,-0.633 -1.266,-1.425 -1.7,-2.375c-0.433,-0.95 -0.666,-2.058 -0.7,-3.325l4.8,0c0.1,0.7 0.342,1.35 0.725,1.95c0.384,0.6 1.059,0.9 2.025,0.9c0.734,0 1.392,-0.242 1.975,-0.725c0.584,-0.483 0.875,-1.158 0.875,-2.025c0,-0.7 -0.183,-1.3 -0.55,-1.8c-0.366,-0.5 -1.033,-0.933 -2,-1.3l-2.45,-0.9c-1.6,-0.6 -2.858,-1.492 -3.775,-2.675c-0.916,-1.183 -1.375,-2.625 -1.375,-4.325c0,-1.067 0.2,-2.058 0.6,-2.975c0.4,-0.917 0.95,-1.708 1.65,-2.375c0.667,-0.667 1.45,-1.175 2.35,-1.525c0.9,-0.35 1.867,-0.525 2.9,-0.525c1.034,0 1.992,0.183 2.875,0.55c0.884,0.367 1.642,0.883 2.275,1.55c0.634,0.667 1.134,1.458 1.5,2.375c0.367,0.917 0.55,1.892 0.55,2.925l-4.8,0Z" style="fill-rule:nonzero;"/><path d="M105.362,10.25l0,-7.7l5.1,0l0,7.7l3.15,0l0,4l-3.15,0l0,14.05c0,0.6 0.059,1.067 0.175,1.4c0.117,0.333 0.309,0.583 0.575,0.75c0.267,0.167 0.592,0.267 0.975,0.3c0.384,0.033 0.859,0.05 1.425,0.05l0,4.8l-2.1,0c-1.166,0 -2.141,-0.183 -2.925,-0.55c-0.783,-0.367 -1.408,-0.833 -1.875,-1.4c-0.466,-0.567 -0.808,-1.208 -1.025,-1.925c-0.216,-0.717 -0.325,-1.408 -0.325,-2.075l0,-15.4l-2.55,-0l0,-4l2.55,-0Z" style="fill-rule:nonzero;"/><path d="M130.312,24.85l-10.1,0l0,3.45c0,0.8 0.225,1.417 0.675,1.85c0.45,0.433 1.059,0.65 1.825,0.65c0.967,0 1.609,-0.283 1.925,-0.85c0.317,-0.567 0.509,-1.133 0.575,-1.7l5.1,0c0,2.233 -0.683,4.033 -2.05,5.4c-0.666,0.7 -1.466,1.25 -2.4,1.65c-0.933,0.4 -1.983,0.6 -3.15,0.6c-1.6,-0 -2.958,-0.333 -4.075,-1c-1.116,-0.667 -1.975,-1.55 -2.575,-2.65c-0.366,-0.667 -0.616,-1.433 -0.75,-2.3c-0.133,-0.867 -0.2,-1.817 -0.2,-2.85l0,-8.35c0,-1.033 0.067,-1.983 0.2,-2.85c0.134,-0.867 0.384,-1.633 0.75,-2.3c0.6,-1.1 1.459,-1.983 2.575,-2.65c1.117,-0.667 2.475,-1 4.075,-1c1.167,0 2.225,0.2 3.175,0.6c0.95,0.4 1.759,0.95 2.425,1.65c1.334,1.5 2,3.383 2,5.65l0,7Zm-10.1,-4l5,0l0,-2.9c0,-0.967 -0.225,-1.692 -0.675,-2.175c-0.45,-0.483 -1.058,-0.725 -1.825,-0.725c-0.766,0 -1.375,0.242 -1.825,0.725c-0.45,0.483 -0.675,1.208 -0.675,2.175l0,2.9Z" style="fill-rule:nonzero;"/><rect x="134.162" y="19.2" width="15.05" height="5.1" style="fill-rule:nonzero;"/><path d="M153.512,35.6l0,-35.6l5.1,0l0,12.7l0.1,0c0.534,-0.8 1.175,-1.458 1.925,-1.975c0.75,-0.517 1.709,-0.775 2.875,-0.775c0.634,0 1.267,0.108 1.9,0.325c0.634,0.217 1.2,0.575 1.7,1.075c0.5,0.5 0.9,1.142 1.2,1.925c0.3,0.783 0.45,1.742 0.45,2.875l0,19.45l-5.1,0l0,-17.55c0,-0.933 -0.216,-1.667 -0.65,-2.2c-0.433,-0.533 -1.05,-0.8 -1.85,-0.8c-0.966,0 -1.633,0.3 -2,0.9c-0.366,0.6 -0.55,1.467 -0.55,2.6l0,17.05l-5.1,0Z" style="fill-rule:nonzero;"/><path d="M182.612,35.6l0,-2.6l-0.1,0c-0.666,0.933 -1.341,1.65 -2.025,2.15c-0.683,0.5 -1.641,0.75 -2.875,0.75c-0.6,-0 -1.208,-0.092 -1.825,-0.275c-0.616,-0.183 -1.208,-0.525 -1.775,-1.025c-0.566,-0.467 -1.025,-1.142 -1.375,-2.025c-0.35,-0.883 -0.525,-2.025 -0.525,-3.425c0,-1.433 0.117,-2.692 0.35,-3.775c0.234,-1.083 0.667,-1.992 1.3,-2.725c0.6,-0.7 1.417,-1.225 2.45,-1.575c1.034,-0.35 2.35,-0.525 3.95,-0.525l0.55,0c0.2,0 0.384,0.017 0.55,0.05c0.167,0.033 0.367,0.05 0.6,0.05c0.234,-0 0.484,0.017 0.75,0.05l0,-2.65c0,-0.867 -0.183,-1.583 -0.55,-2.15c-0.366,-0.567 -1.033,-0.85 -2,-0.85c-0.666,0 -1.275,0.217 -1.825,0.65c-0.55,0.433 -0.908,1.067 -1.075,1.9l-4.95,0c0.134,-2.267 0.9,-4.1 2.3,-5.5c0.667,-0.667 1.467,-1.192 2.4,-1.575c0.934,-0.383 1.984,-0.575 3.15,-0.575c1.067,0 2.067,0.167 3,0.5c0.934,0.333 1.75,0.833 2.45,1.5c0.667,0.667 1.2,1.5 1.6,2.5c0.4,1 0.6,2.167 0.6,3.5l0,17.65l-5.1,0Zm0,-10.9c-0.566,-0.1 -1.033,-0.15 -1.4,-0.15c-1.1,0 -2.041,0.258 -2.825,0.775c-0.783,0.517 -1.175,1.458 -1.175,2.825c0,0.967 0.234,1.75 0.7,2.35c0.467,0.6 1.117,0.9 1.95,0.9c0.867,-0 1.542,-0.283 2.025,-0.85c0.484,-0.567 0.725,-1.367 0.725,-2.4l0,-3.45Z" style="fill-rule:nonzero;"/><path d="M201.112,35.6l0,-2.6l-0.1,0c-0.666,0.933 -1.341,1.65 -2.025,2.15c-0.683,0.5 -1.641,0.75 -2.875,0.75c-0.6,-0 -1.208,-0.092 -1.825,-0.275c-0.616,-0.183 -1.208,-0.525 -1.775,-1.025c-0.566,-0.467 -1.025,-1.142 -1.375,-2.025c-0.35,-0.883 -0.525,-2.025 -0.525,-3.425c0,-1.433 0.117,-2.692 0.35,-3.775c0.234,-1.083 0.667,-1.992 1.3,-2.725c0.6,-0.7 1.417,-1.225 2.45,-1.575c1.034,-0.35 2.35,-0.525 3.95,-0.525l0.55,0c0.2,0 0.384,0.017 0.55,0.05c0.167,0.033 0.367,0.05 0.6,0.05c0.234,-0 0.484,0.017 0.75,0.05l0,-2.65c0,-0.867 -0.183,-1.583 -0.55,-2.15c-0.366,-0.567 -1.033,-0.85 -2,-0.85c-0.666,0 -1.275,0.217 -1.825,0.65c-0.55,0.433 -0.908,1.067 -1.075,1.9l-4.95,0c0.134,-2.267 0.9,-4.1 2.3,-5.5c0.667,-0.667 1.467,-1.192 2.4,-1.575c0.934,-0.383 1.984,-0.575 3.15,-0.575c1.067,0 2.067,0.167 3,0.5c0.934,0.333 1.75,0.833 2.45,1.5c0.667,0.667 1.2,1.5 1.6,2.5c0.4,1 0.6,2.167 0.6,3.5l0,17.65l-5.1,0Zm0,-10.9c-0.566,-0.1 -1.033,-0.15 -1.4,-0.15c-1.1,0 -2.041,0.258 -2.825,0.775c-0.783,0.517 -1.175,1.458 -1.175,2.825c0,0.967 0.234,1.75 0.7,2.35c0.467,0.6 1.117,0.9 1.95,0.9c0.867,-0 1.542,-0.283 2.025,-0.85c0.484,-0.567 0.725,-1.367 0.725,-2.4l0,-3.45Z" style="fill-rule:nonzero;"/><path d="M209.962,35.6l0,-25.35l5.1,0l0,2.7c1.034,-0.933 2.05,-1.667 3.05,-2.2c1,-0.533 2.234,-0.8 3.7,-0.8l0,5.4c-0.5,-0.2 -1.016,-0.3 -1.55,-0.3c-0.533,0 -1.108,0.092 -1.725,0.275c-0.616,0.183 -1.175,0.492 -1.675,0.925c-0.533,0.433 -0.966,1 -1.3,1.7c-0.333,0.7 -0.5,1.567 -0.5,2.6l0,15.05l-5.1,0Z" style="fill-rule:nonzero;"/><path d="M223.862,35.6l0,-35.6l5.1,0l0,21.3l0.1,0l6.15,-11.05l5.1,0l-6.05,10.3l7.3,15.05l-5.55,0l-4.6,-10.95l-2.45,3.85l0,7.1l-5.1,0Z" style="fill-rule:nonzero;"/><path d="M243.012,0l5.1,0l0,28.45c0,0.967 0.175,1.625 0.525,1.975c0.35,0.35 1.009,0.575 1.975,0.675l0,4.8c-1.166,-0 -2.216,-0.092 -3.15,-0.275c-0.933,-0.183 -1.733,-0.542 -2.4,-1.075c-0.666,-0.5 -1.175,-1.208 -1.525,-2.125c-0.35,-0.917 -0.525,-2.125 -0.525,-3.625l0,-28.8Z" style="fill-rule:nonzero;"/><path d="M252.612,35.6l0,-25.35l5.1,0l0,25.35l-5.1,0Zm0,-30.5l0,-5.1l5.1,-0l0,5.1l-5.1,0Z" style="fill-rule:nonzero;"/><path d="M261.912,35.6l0,-25.35l5.1,0l0,2.45l0.1,0c0.534,-0.8 1.175,-1.458 1.925,-1.975c0.75,-0.517 1.709,-0.775 2.875,-0.775c0.634,0 1.267,0.108 1.9,0.325c0.634,0.217 1.2,0.575 1.7,1.075c0.5,0.5 0.9,1.142 1.2,1.925c0.3,0.783 0.45,1.742 0.45,2.875l0,19.45l-5.1,0l0,-17.55c0,-0.933 -0.216,-1.667 -0.65,-2.2c-0.433,-0.533 -1.05,-0.8 -1.85,-0.8c-0.966,0 -1.633,0.3 -2,0.9c-0.366,0.6 -0.55,1.467 -0.55,2.6l0,17.05l-5.1,0Z" style="fill-rule:nonzero;"/><path d="M281.362,35.6l0,-25.35l5.1,0l0,25.35l-5.1,0Zm0,-30.5l0,-5.1l5.1,-0l0,5.1l-5.1,0Z" style="fill-rule:nonzero;"/><path d="M290.662,35.6l0,-35.6l5.1,0l0,21.3l0.1,0l6.15,-11.05l5.1,0l-6.05,10.3l7.3,15.05l-5.55,0l-4.6,-10.95l-2.45,3.85l0,7.1l-5.1,0Z" style="fill-rule:nonzero;"/><path d="M324.262,24.85l-10.1,0l0,3.45c0,0.8 0.225,1.417 0.675,1.85c0.45,0.433 1.059,0.65 1.825,0.65c0.967,0 1.609,-0.283 1.925,-0.85c0.317,-0.567 0.509,-1.133 0.575,-1.7l5.1,0c0,2.233 -0.683,4.033 -2.05,5.4c-0.666,0.7 -1.466,1.25 -2.4,1.65c-0.933,0.4 -1.983,0.6 -3.15,0.6c-1.6,-0 -2.958,-0.333 -4.075,-1c-1.116,-0.667 -1.975,-1.55 -2.575,-2.65c-0.366,-0.667 -0.616,-1.433 -0.75,-2.3c-0.133,-0.867 -0.2,-1.817 -0.2,-2.85l0,-8.35c0,-1.033 0.067,-1.983 0.2,-2.85c0.134,-0.867 0.384,-1.633 0.75,-2.3c0.6,-1.1 1.459,-1.983 2.575,-2.65c1.117,-0.667 2.475,-1 4.075,-1c1.167,0 2.225,0.2 3.175,0.6c0.95,0.4 1.759,0.95 2.425,1.65c1.334,1.5 2,3.383 2,5.65l0,7Zm-10.1,-4l5,0l0,-2.9c0,-0.967 -0.225,-1.692 -0.675,-2.175c-0.45,-0.483 -1.058,-0.725 -1.825,-0.725c-0.766,0 -1.375,0.242 -1.825,0.725c-0.45,0.483 -0.675,1.208 -0.675,2.175l0,2.9Z" style="fill-rule:nonzero;"/><path d="M328.012,35.6l0,-25.35l5.1,0l0,2.45l0.1,0c0.534,-0.8 1.175,-1.458 1.925,-1.975c0.75,-0.517 1.709,-0.775 2.875,-0.775c0.634,0 1.267,0.108 1.9,0.325c0.634,0.217 1.2,0.575 1.7,1.075c0.5,0.5 0.9,1.142 1.2,1.925c0.3,0.783 0.45,1.742 0.45,2.875l0,19.45l-5.1,0l0,-17.55c0,-0.933 -0.216,-1.667 -0.65,-2.2c-0.433,-0.533 -1.05,-0.8 -1.85,-0.8c-0.966,0 -1.633,0.3 -2,0.9c-0.366,0.6 -0.55,1.467 -0.55,2.6l0,17.05l-5.1,0Z" style="fill-rule:nonzero;"/><rect x="347.462" y="30.5" width="5.1" height="5.1" style="fill-rule:nonzero;"/><path d="M361.862,27.35c0,1.033 0.2,1.867 0.6,2.5c0.4,0.633 1.034,0.95 1.9,0.95c0.767,0 1.384,-0.292 1.85,-0.875c0.467,-0.583 0.7,-1.342 0.7,-2.275l0,-9.85c0,-0.8 -0.241,-1.458 -0.725,-1.975c-0.483,-0.517 -1.091,-0.775 -1.825,-0.775c-0.966,0 -1.625,0.3 -1.975,0.9c-0.35,0.6 -0.525,1.3 -0.525,2.1l0,9.3Zm5.05,8.25l0,-2.3c-0.333,0.367 -0.65,0.708 -0.95,1.025c-0.3,0.317 -0.633,0.592 -1,0.825c-0.366,0.233 -0.783,0.417 -1.25,0.55c-0.466,0.133 -1.016,0.2 -1.65,0.2c-2.133,-0 -3.616,-0.8 -4.45,-2.4c-0.3,-0.567 -0.516,-1.267 -0.65,-2.1c-0.133,-0.833 -0.2,-1.95 -0.2,-3.35l0,-9.65c0,-1.833 0.05,-3.183 0.15,-4.05c0.2,-1.667 0.984,-2.917 2.35,-3.75c0.634,-0.433 1.584,-0.65 2.85,-0.65c1,0 1.892,0.225 2.675,0.675c0.784,0.45 1.459,1.092 2.025,1.925l0.1,0l0,-12.55l5.1,-0l0,35.6l-5.1,0Z" style="fill-rule:nonzero;"/><path d="M390.962,24.85l-10.1,0l0,3.45c0,0.8 0.225,1.417 0.675,1.85c0.45,0.433 1.059,0.65 1.825,0.65c0.967,0 1.609,-0.283 1.925,-0.85c0.317,-0.567 0.509,-1.133 0.575,-1.7l5.1,0c0,2.233 -0.683,4.033 -2.05,5.4c-0.666,0.7 -1.466,1.25 -2.4,1.65c-0.933,0.4 -1.983,0.6 -3.15,0.6c-1.6,-0 -2.958,-0.333 -4.075,-1c-1.116,-0.667 -1.975,-1.55 -2.575,-2.65c-0.366,-0.667 -0.616,-1.433 -0.75,-2.3c-0.133,-0.867 -0.2,-1.817 -0.2,-2.85l0,-8.35c0,-1.033 0.067,-1.983 0.2,-2.85c0.134,-0.867 0.384,-1.633 0.75,-2.3c0.6,-1.1 1.459,-1.983 2.575,-2.65c1.117,-0.667 2.475,-1 4.075,-1c1.167,0 2.225,0.2 3.175,0.6c0.95,0.4 1.759,0.95 2.425,1.65c1.334,1.5 2,3.383 2,5.65l0,7Zm-10.1,-4l5,0l0,-2.9c0,-0.967 -0.225,-1.692 -0.675,-2.175c-0.45,-0.483 -1.058,-0.725 -1.825,-0.725c-0.766,0 -1.375,0.242 -1.825,0.725c-0.45,0.483 -0.675,1.208 -0.675,2.175l0,2.9Z" style="fill-rule:nonzero;"/><circle cx="17.818" cy="17.818" r="17.818"/></svg>